<svg width="1600" height="1100" viewBox="0 0 1600 1100" fill="none" xmlns="http://www.w3.org/2000/svg">
  <rect width="1600" height="1100" fill="#0B0C0A"/>
  <rect width="1600" height="1100" fill="url(#bg)"/>
  <circle cx="1260" cy="180" r="260" fill="#C8F135" fill-opacity="0.12"/>
  <circle cx="260" cy="940" r="320" fill="#C8F135" fill-opacity="0.08"/>
  <rect x="76" y="78" width="1448" height="944" rx="40" fill="#10110F" fill-opacity="0.92" stroke="rgba(255,255,255,0.08)"/>
  <rect x="130" y="130" width="520" height="360" rx="28" fill="#151713" stroke="rgba(255,255,255,0.08)"/>
  <text x="176" y="190" fill="#C8F135" font-family="Arial, sans-serif" font-size="34" font-weight="700" letter-spacing="4">NEXIUM.AUTO</text>
  <text x="176" y="246" fill="#F5F5F7" font-family="Arial, sans-serif" font-size="74" font-weight="700">AI-приемщик</text>
  <text x="176" y="312" fill="#8E8E93" font-family="Arial, sans-serif" font-size="32">Берет диалог, уточняет ремонт и ставит в запись</text>
  <rect x="176" y="362" width="180" height="54" rx="27" fill="#1A1D15" stroke="#C8F135" stroke-opacity="0.4"/>
  <text x="208" y="397" fill="#C8F135" font-family="Arial, sans-serif" font-size="24" font-weight="700">24/7 лиды</text>
  <rect x="772" y="164" width="642" height="390" rx="34" fill="#0D0F0C" stroke="rgba(255,255,255,0.08)"/>
  <rect x="818" y="214" width="548" height="72" rx="20" fill="#151812"/>
  <text x="850" y="258" fill="#F5F5F7" font-family="Arial, sans-serif" font-size="30" font-weight="700">Telegram-диалог</text>
  <rect x="846" y="318" width="350" height="102" rx="26" fill="#1A1D15" stroke="#C8F135" stroke-opacity="0.26"/>
  <text x="882" y="364" fill="#F5F5F7" font-family="Arial, sans-serif" font-size="28">Toyota Camry, ТО и тормоза</text>
  <text x="882" y="400" fill="#8E8E93" font-family="Arial, sans-serif" font-size="24">бот собрал данные за 38 сек.</text>
  <rect x="1088" y="446" width="236" height="64" rx="22" fill="#C8F135"/>
  <text x="1136" y="487" fill="#10110F" font-family="Arial, sans-serif" font-size="28" font-weight="700">Подтвердить</text>
  <rect x="146" y="562" width="1308" height="312" rx="34" fill="#0D0F0C" stroke="rgba(255,255,255,0.08)"/>
  <text x="192" y="624" fill="#F5F5F7" font-family="Arial, sans-serif" font-size="34" font-weight="700">Слоты на подъемники</text>
  <text x="192" y="668" fill="#8E8E93" font-family="Arial, sans-serif" font-size="24">система предлагает ближайшее окно без ручного перебора</text>
  <rect x="192" y="720" width="230" height="94" rx="24" fill="#151812" stroke="#C8F135" stroke-opacity="0.2"/>
  <text x="226" y="764" fill="#C8F135" font-family="Arial, sans-serif" font-size="24" font-weight="700">09:30</text>
  <text x="226" y="798" fill="#F5F5F7" font-family="Arial, sans-serif" font-size="30">Подъемник A</text>
  <rect x="446" y="720" width="230" height="94" rx="24" fill="#151812" stroke="#C8F135" stroke-opacity="0.2"/>
  <text x="480" y="764" fill="#C8F135" font-family="Arial, sans-serif" font-size="24" font-weight="700">11:00</text>
  <text x="480" y="798" fill="#F5F5F7" font-family="Arial, sans-serif" font-size="30">Подъемник B</text>
  <rect x="700" y="720" width="230" height="94" rx="24" fill="#C8F135"/>
  <text x="734" y="764" fill="#10110F" font-family="Arial, sans-serif" font-size="24" font-weight="700">12:30</text>
  <text x="734" y="798" fill="#10110F" font-family="Arial, sans-serif" font-size="30">Свободный слот</text>
  <path d="M1114 790C1198 790 1266 722 1266 638C1266 554 1198 486 1114 486C1030 486 962 554 962 638C962 722 1030 790 1114 790Z" fill="#151812"/>
  <path d="M1022 704C1048 624 1090 580 1144 580C1186 580 1220 602 1242 644" stroke="#C8F135" stroke-width="20" stroke-linecap="round"/>
  <path d="M992 734H1240" stroke="#8E8E93" stroke-width="18" stroke-linecap="round"/>
  <circle cx="1038" cy="734" r="34" fill="#0B0C0A" stroke="#C8F135" stroke-width="14"/>
  <circle cx="1194" cy="734" r="34" fill="#0B0C0A" stroke="#C8F135" stroke-width="14"/>
  <defs>
    <radialGradient id="bg" cx="0" cy="0" r="1" gradientUnits="userSpaceOnUse" gradientTransform="translate(1280 180) rotate(132.149) scale(1233.86 1192.45)">
      <stop stop-color="#1B1E15"/>
      <stop offset="1" stop-color="#090909"/>
    </radialGradient>
  </defs>
</svg>
